<svg xmlns="http://www.w3.org/2000/svg" width="185.004" height="80" viewBox="0 0 185.004 80">
  <g id="Group_7864" data-name="Group 7864" transform="translate(-256 -298)">
    <text id="POLSKI_ZWIĄZEK_WĘDKARSKI" data-name="POLSKI ZWIĄZEK WĘDKARSKI" transform="translate(360.004 328)" fill="#fff" font-size="13" font-family="Helvetica-Bold, Helvetica" font-weight="700"><tspan x="0" y="0">POLSKI</tspan><tspan x="0" y="16">ZWIĄZEK</tspan><tspan x="0" y="32">WĘDKARSKI</tspan></text>
    <g id="Frame" transform="translate(256.004 298)">
      <rect id="Frame-2" data-name="Frame" width="83.673" height="79.963" fill="none"/>
      <path id="Vector" d="M6.67,0h.7L8,.141l.631.141L9.26.49l.556.283.565.283.49.424.49.424.424.565.424.49.349.565.283.556.207.631.141.631.066.631V7.3l-.066.7-.141.631-.207.565-.283.565-.349.565-.424.49-.424.565-.49.424-.49.424-.565.283-.556.283L8.629,13,8,13.142l-.631.141h-1.4l-.631-.141L4.7,13l-.631-.207L3.5,12.511l-.565-.283-.49-.424-.49-.424-.424-.565-.424-.49L.763,9.76.48,9.195.273,8.629.132,8,.066,7.3,0,6.67l.066-.7.066-.631L.273,4.71.48,4.079l.283-.556.349-.565.424-.49L1.959,1.9l.49-.424.49-.424L3.5.772,4.07.49,4.7.283,5.332.141,5.963,0h.7Zm5.747,6.651L12.35,6.02l-.066-.565-.141-.49L12,4.4l-.283-.49-.283-.49L11.088,3l-.349-.424-.424-.424L9.826,1.8,9.4,1.517l-.556-.207L8.356,1.1,7.791.961,7.235.895H6.048L5.483.961l-.49.141-.565.207-.49.207-.49.283-.424.349L2.6,2.572,2.252,3,1.9,3.42l-.283.49-.283.49L1.2,4.965l-.141.49L.989,6.02l-.066.631.066.565.066.565.141.565.141.49.283.49.283.49.349.424.349.424.424.424.424.349.49.283.49.207.565.207.49.141.565.066H7.235l.556-.066.565-.141.49-.207.556-.207.424-.283.49-.349.424-.424.349-.424.349-.424.283-.49L12,8.837l.141-.49.141-.565.066-.565Zm-8.055,3.5V3.081H6.952l.207.066h.207l.141.066h.207l.207.141.141.066.141.141.207.141.141.141.066.141.141.207.066.141.066.207v.207l.066.141v.424l-.066.207v.207l-.066.207-.066.141-.141.207-.141.141-.141.141-.283.283-.141.066-.207.066.631,1.545.631,1.611H7.706l-.565-1.47L6.51,7.2H5.389v2.939H4.333Zm3.57-5.049V4.965l-.066-.207L7.8,4.616l-.141-.207-.141-.066L7.31,4.2l-.141-.066H5.417V6.171H6.962L7.169,6.1H7.31l.207-.141L7.659,5.9,7.8,5.69l.075-.141.066-.207V5.134" transform="translate(4.242 66.717)" fill="#fff" fill-rule="evenodd"/>
      <path id="Vector-2" data-name="Vector" d="M13.272,2.252A110.875,110.875,0,0,1,24.157,8.045,106.7,106.7,0,0,1,37.1,17.494c10.057-.236,14.6,1.008,20.942,2.1a24.386,24.386,0,0,0-.085,4.051c.132.5.235,1.168.377,1.667l.377.923a9.027,9.027,0,0,1,1.149,2.751c-.33.33-.734.3-1.874.386a1.914,1.914,0,0,0,0,1.036A19.344,19.344,0,0,0,65.72,32.1c11.554.311,11.215-10.344,16.168-16.731.829-.942,1.431-1.008,1.789-.961a30.692,30.692,0,0,1-.508,6.689l-2.608,3.665c-1.224,1.762-.4,1.14,1.252.97.245.782-.132,2.732-1.2,5.36-2.222,5.568-3.107,7.169-6.61,10.334a18.666,18.666,0,0,1-10.885,5.5c-2.363.028-5.2-.038-8.974.32a4.5,4.5,0,0,1-1.026-1.818c0-.33-.829-.226-1.055-.226-.819.236,2.006,4.691,2.053,6.519a11.441,11.441,0,0,1-2.665-.009c-3.154-2.779-6.045-4.87-8.371-6.821-2.4-2.129-2.881-2.233-6.13-2.572-2.589-.415-6.62-3.552-8.541-3.5-.056-.942-.226-2.157-.2-2.883-.9,0-1.591-.113-1.591-.075,0,.33.056,3.335.113,4.955-.273-.217-1.4-.339-1.921-1.187a32.325,32.325,0,0,1-6-6.726c-.245-.82-.339-2.544-.584-3.957-2.288-2.167-4.6-3.42-6.6-5.087C5.315,18.935,2.387,13.6.381,7.216c-1.234-4.023.838-9.091,1.817-3.4,1.318,1.272,1.742,2.449,2.5,4.512a30.05,30.05,0,0,0,1.9,3.891c.226.669,1.008-2.553-.226-5.276-.885-2.12-3.927-5.558-3.654-6.5A2.051,2.051,0,0,1,3.922,0a30.824,30.824,0,0,1,9.332,2.261ZM6.577,3.42a16.4,16.4,0,0,1,2.571,7.555c.48,1.818-.264,4.663.96,5.247,2.514.217,2.787-1.451,2.674-2.892A9.392,9.392,0,0,0,11.925,9.9c-.8-1.234-1.6-3-2.09-3.693L8.5,4.39C8.178,3.966,7.641,3.156,7.161,3c-.8-.273-.96.537-.593.424Zm7.815,7.367A2.469,2.469,0,1,0,16.86,8.4a2.429,2.429,0,0,0-2.467,2.383Zm-.424,9.26a8.676,8.676,0,0,0,7.053-.7,6.79,6.79,0,0,0,3.889-3.938c.217-2.666-2.147.772-2.966,1.253a9.565,9.565,0,0,1-3.654,1.244c-2.241.386-6.139-1.4-5.763.594a2.824,2.824,0,0,0,1.441,1.536ZM28.018,23.8l.367,2.572-2.4.32.2,1.47,2.42-.32.348,2.449,1.469-.207-.339-2.44,2.411-.32-.2-1.47-2.42.32-.367-2.591-1.469.207Zm6.93,5.389.734,2.5-2.335.669.4,1.423L36.1,33.1l.7,2.374,1.422-.415-.7-2.365,2.335-.669-.4-1.423-2.345.669-.734-2.506-1.422.415Zm5.932,4.352.913,2.44-2.279.838.508,1.394,2.288-.838.866,2.317,1.384-.518L43.7,36.863l2.279-.838-.508-1.394-2.3.838-.923-2.449-1.384.518Zm6.422,3.58,1.5,1.667-1.563,1.385.847.951,1.563-1.385,1.422,1.583.951-.848L50.607,38.9l1.563-1.385-.847-.951-1.573,1.394-1.5-1.667-.942.848Zm6.78,1.818,1.139,1.46-1.365,1.055.64.838,1.375-1.055,1.083,1.385.829-.65-1.073-1.385,1.365-1.055-.64-.838-1.375,1.055-1.139-1.46-.829.65Zm6.158.565,1.412,1.187L60.532,42l.8.688,1.121-1.319L63.8,42.5l.678-.8-1.337-1.13,1.121-1.319-.8-.678-1.13,1.319-1.422-1.2-.678.81" transform="translate(-0.004 27.236)" fill="#fff" fill-rule="evenodd"/>
      <path id="Vector-3" data-name="Vector" d="M0,29c1.526-4.786,3.184-9.722,4.691-14.574S7.81,4.772,9.421.014c.961.019,1.884.038,2.836.019A43.52,43.52,0,0,1,16.693.08c2.5.226,4.39,1.62,4.541,4.315a8.13,8.13,0,0,1-.188,2.327l-.292,1.5c-.716,3.241-1.771,5.747-2.788,8.912-1.017,3.128-3.335,4.626-5.935,4.437L6.868,21.54,4.239,28.973l-4.22.019ZM12.124,4.244,7.942,17.169h3.646a5.286,5.286,0,0,0,.546,0l.264-.028.207-.028a1.434,1.434,0,0,0,.716-.433h.019l.019-.038a1.284,1.284,0,0,0,.1-.132,2.132,2.132,0,0,0,.245-.4l.132-.2.367-.829.678-2.035.82-2.478.688-2.506.424-1.6.057-.254L16.9,6a1.385,1.385,0,0,0-.876-1.743c-.33-.009-.707-.019-1.046-.019H12.134" transform="translate(25.89 6.156)" fill="#fff" fill-rule="evenodd"/>
      <path id="Vector-4" data-name="Vector" d="M6.962,37.88l21.13.019-2.2,4L0,41.978,12.6,19.8l.49-13.481,3.881-.028-.151,6.01,4.626-8.1H7.094L8.8,0h19.52L16.552,20.886l-.075,4.437L27.32,6.331l4.465-.085-1.7,19.048L39.058,6.3l4.814-.085L29.9,35.308l-4.512-.019,1.79-20.151L16.024,35.327l-3.9.009.254-7.056Z" transform="translate(35.375)" fill="#fff" fill-rule="evenodd"/>
      <path id="Vector-5" data-name="Vector" d="M14.508,1.131l2.412,9.185a17.284,17.284,0,0,1,.339,5.709A65.033,65.033,0,0,0,18.5,27.481c-2.487,1.733-4.428,5.4-5.332,8.215-1.894,4.484-2.864,5.841-5.341,8.036-2.186.961-5.285.659-4.654.349,1.159-1.488,3.486-4.644,4.965-6.491.97-1.6.791.584,2.534-.528,1.168-4.494-3.467-7.81-6.849-8.865a9.072,9.072,0,0,0-1.507-.019C1.2,28.319.132,29.412.01,28.885a8.027,8.027,0,0,1,1.14-3.071l1.46-2.289,2.967-4.079c2.638-3.523,5.031-7,5.831-11.258l1.488-5.8C13.472-.668,13.9-.442,14.508,1.122" transform="translate(63.438 12.657)" fill="#fff" fill-rule="evenodd"/>
    </g>
  </g>
</svg>
